<svg aria-hidden="true" style="position: absolute; width: 0; height: 0; overflow: hidden;" version="1.1" xmlns="http://www.w3.org/2000/svg" xmlns:xlink="http://www.w3.org/1999/xlink">
<defs>

<!-- Icon arrow left -->
<symbol id="icon-arrow-left" viewBox="0 0 32 32">
<path stroke-linejoin="round" stroke-linecap="round" stroke-miterlimit="4" stroke-width="2.6667" d="M25.333 16h-18.667"></path>
<path stroke-linejoin="round" stroke-linecap="round" stroke-miterlimit="4" stroke-width="2.6667" d="M16 25.334l-9.333-9.333 9.333-9.333"></path>
</symbol>

<!-- Icon favorite -->
<symbol id="icon-favorite" viewBox="0 0 34 32">
<path fill="#ff6b08" style="fill: var(--color1, #ff6b08)" d="M17.231 31.705l-2.412-2.412c-8.96-7.926-14.818-13.268-14.818-19.815 0-5.342 4.135-9.477 9.477-9.477 2.929 0 5.858 1.378 7.754 3.618 1.895-2.24 4.825-3.618 7.754-3.618 5.342 0 9.477 4.135 9.477 9.477 0 6.548-5.858 11.889-14.818 19.815l-2.412 2.412z"></path>
</symbol>

<!-- Icon film -->
<symbol id="icon-film" viewBox="0 0 32 32">
<path fill="none" stroke="#818181" style="stroke: var(--color2, #818181)" stroke-linejoin="round" stroke-linecap="round" stroke-miterlimit="4" stroke-width="2.6667" d="M26.427 2.667h-20.853c-1.605 0-2.907 1.301-2.907 2.907v20.853c0 1.605 1.301 2.907 2.907 2.907h20.853c1.605 0 2.907-1.301 2.907-2.907v-20.853c0-1.605-1.301-2.907-2.907-2.907z"></path>
<path fill="none" stroke="#818181" style="stroke: var(--color2, #818181)" stroke-linejoin="round" stroke-linecap="round" stroke-miterlimit="4" stroke-width="2.6667" d="M9.333 2.667v26.667"></path>
<path fill="none" stroke="#818181" style="stroke: var(--color2, #818181)" stroke-linejoin="round" stroke-linecap="round" stroke-miterlimit="4" stroke-width="2.6667" d="M22.667 2.667v26.667"></path>
<path fill="none" stroke="#818181" style="stroke: var(--color2, #818181)" stroke-linejoin="round" stroke-linecap="round" stroke-miterlimit="4" stroke-width="2.6667" d="M2.667 16h26.667"></path>
<path fill="none" stroke="#818181" style="stroke: var(--color2, #818181)" stroke-linejoin="round" stroke-linecap="round" stroke-miterlimit="4" stroke-width="2.6667" d="M2.667 9.333h6.667"></path>
<path fill="none" stroke="#818181" style="stroke: var(--color2, #818181)" stroke-linejoin="round" stroke-linecap="round" stroke-miterlimit="4" stroke-width="2.6667" d="M2.667 22.667h6.667"></path>
<path fill="none" stroke="#818181" style="stroke: var(--color2, #818181)" stroke-linejoin="round" stroke-linecap="round" stroke-miterlimit="4" stroke-width="2.6667" d="M22.667 22.667h6.667"></path>
<path fill="none" stroke="#818181" style="stroke: var(--color2, #818181)" stroke-linejoin="round" stroke-linecap="round" stroke-miterlimit="4" stroke-width="2.6667" d="M22.667 9.333h6.667"></path>
</symbol>

<!-- Icon search 2 -->
<symbol id="icon-search-2" viewBox="0 0 32 32">
<path fill="none" stroke="#fff" style="stroke: var(--color3, #fff)" stroke-linejoin="round" stroke-linecap="round" stroke-miterlimit="4" stroke-width="2.6667" d="M14.667 25.333c5.891 0 10.667-4.776 10.667-10.667s-4.776-10.667-10.667-10.667c-5.891 0-10.667 4.776-10.667 10.667s4.776 10.667 10.667 10.667z"></path>
<path fill="none" stroke="#fff" style="stroke: var(--color3, #fff)" stroke-linejoin="round" stroke-linecap="round" stroke-miterlimit="4" stroke-width="2.6667" d="M28 28.001l-5.8-5.8"></path>
</symbol>

<!-- Icon logo -->
<symbol id="icon-logo" viewBox="0 0 32 32">
<path fill="none" stroke="#818181" stroke-width="2.6667" stroke-miterlimit="4" stroke-linecap="round" stroke-linejoin="round" style="stroke: var(--color1, #818181)" d="M26.667 2.667h-21.333l-2.667 2.667v21.333l2.667 2.667h21.333l2.667-2.667v-21.333l-2.667-2.667zM9.333 2.667v26.667M22.667 2.667v26.667M2.667 16h26.667M2.667 9.333h6.667M2.667 22.667h6.667M22.667 22.667h6.667M22.667 9.333h6.667"></path>
</symbol>

<!-- Icon search -->
<symbol id="icon-search" viewBox="0 0 32 32">
<path fill="none" stroke="#fff" stroke-width="2.6667" stroke-miterlimit="4" stroke-linecap="round" stroke-linejoin="round" style="stroke: var(--color2, #fff)" d="M16 26.667c5.891 0 10.667-4.776 10.667-10.667s-4.776-10.667-10.667-10.667v0c-5.891 0-10.667 4.776-10.667 10.667s4.776 10.667 10.667 10.667v0zM29.333 29.333l-8-8"></path>
</symbol>

<!-- Icon close -->
<symbol id="icon-close" viewBox="0 0 32 32">
<path stroke-width="2.1333" stroke-miterlimit="4" stroke-linecap="butt" stroke-linejoin="miter" d="M8.533 8.533l14.933 14.933"></path>
<path stroke-width="2.1333" stroke-miterlimit="4" stroke-linecap="butt" stroke-linejoin="miter" d="M8.533 23.467l14.933-14.933"></path>
</symbol>

<!-- Icons toggle -->
<svg class="icon-moon" xmlns="http://www.w3.org/2000/svg" viewBox="0 0 49.739 49.739" style="enable-background:new 0 0 49.739 49.739" xml:space="preserve"><path d="M25.068 48.889c-9.173 0-18.017-5.06-22.396-13.804A24.91 24.91 0 0 1 13.003 1.979L15.064.85l-.615 2.268a22.962 22.962 0 0 0 1.633 16.306A22.848 22.848 0 0 0 29.387 30.95a22.855 22.855 0 0 0 17.559-1.258c.25-.125.492-.258.734-.391l2.061-1.13-.585 2.252a25.032 25.032 0 0 1-12.933 15.822 24.877 24.877 0 0 1-11.155 2.644zM12.002 4.936a22.906 22.906 0 0 0-7.54 29.253c5.678 11.34 19.522 15.945 30.864 10.268A23.037 23.037 0 0 0 46.507 32.1c-5.632 2.427-11.882 2.702-17.752.748-6.337-2.108-11.473-6.557-14.463-12.528a24.948 24.948 0 0 1-2.29-15.384z"/></svg>
<svg class="icon-sun" xmlns="http://www.w3.org/2000/svg" viewBox="0 0 496 496" style="enable-background:new 0 0 496 496" xml:space="preserve"><path d="m172.731 45.386 15.309 36.957-14.783 6.123-15.308-36.957zM51.483 157.938l36.957 15.309-6.123 14.782L45.36 172.72zM45.412 323.318l36.957-15.309 6.123 14.783L51.535 338.1zM172.7 450.662l-14.781-6.124 15.311-36.951 14.781 6.124zM323.301 450.565l-15.308-36.957 14.782-6.123 15.308 36.956zM444.499 338.053l-36.957-15.309 6.123-14.782 36.957 15.308zM450.584 172.749l-36.957 15.308-6.123-14.782 36.957-15.309zM323.259 45.351l14.78 6.125-15.311 36.951-14.781-6.125zM248 88c-88.224 0-160 71.776-160 160s71.776 160 160 160 160-71.776 160-160S336.224 88 248 88zm0 304c-79.4 0-144-64.6-144-144s64.6-144 144-144 144 64.6 144 144-64.6 144-144 144zM240 0h16v72h-16zM78.298 66.982l50.91 50.91-11.313 11.314-50.91-50.91zM0 240h72v16H0zM78.291 429.03l-11.314-11.314 50.91-50.91 11.315 11.313zM240 424h16v72h-16zM417.679 429.033l-50.91-50.91 11.313-11.314 50.91 50.91zM424 240h72v16h-72zM417.708 66.975l11.314 11.314-50.91 50.91-11.314-11.314z"/></svg>

</defs>
</svg>
